<svg width="512" height="512" viewBox="0 0 512 512" fill="none" xmlns="http://www.w3.org/2000/svg">
  <rect width="512" height="512" rx="96" fill="#003C57"/>
  <path d="M153 148v126c0 60 45 105 103 105s103-45 103-105V148h-58v128c0 29-19 50-45 50s-45-21-45-50V148h-58Z" fill="#FFFFFF"/>
  <path d="M256 112c-44 0-79 35-79 79h58c0-12 9-21 21-21s21 9 21 21v25h58v-25c0-44-35-79-79-79Z" fill="#23A6A8"/>
  <path d="M256 400c61 0 113-37 135-90l-55-19c-13 31-44 52-80 52s-67-21-80-52l-55 19c22 53 74 90 135 90Z" fill="#F28C28"/>
</svg>
